<mxfile host="app.diagrams.net" modified="2024-01-25T08:23:50.042Z" agent="Mozilla/5.0 (X11; Linux x86_64) AppleWebKit/537.36 (KHTML, like Gecko) Chrome/121.0.0.0 Safari/537.36" version="23.0.1" etag="e2FyBzRu5X1ECa_F5JH_" type="github">
  <diagram name="Page-1" id="N5wuTJQsyHk180UlIw57">
    <mxGraphModel>
      <root>
        <mxCell id="0" />
        <mxCell id="1" parent="0" />
      </root>
    </mxGraphModel>
  </diagram>
</mxfile>
